<svg width="21" height="22" viewBox="0 0 21 22" fill="none" xmlns="http://www.w3.org/2000/svg">
<path d="M10.425 2.82843L4.69154 7.77817C1.52504 10.5119 1.52504 14.944 4.69154 17.6777C7.85804 20.4114 12.992 20.4114 16.1584 17.6777C19.3249 14.944 19.3249 10.5119 16.1584 7.77818L10.425 2.82843ZM10.425 0L17.7966 6.36396C21.8678 9.87868 21.8678 15.5772 17.7966 19.0919C13.7253 22.6066 7.12463 22.6066 3.05341 19.0919C-1.0178 15.5772 -1.0178 9.87868 3.05341 6.36396L10.425 0ZM4.63333 12.7279H16.2167C16.2167 15.4894 13.6236 17.7279 10.425 17.7279C7.22635 17.7279 4.63333 15.4894 4.63333 12.7279Z" fill="white"/>
</svg>
